<mxfile host="app.diagrams.net" agent="Mozilla/5.0 (Windows NT 10.0; Win64; x64) AppleWebKit/537.36 (KHTML, like Gecko) Chrome/133.0.0.0 Safari/537.36 Edg/133.0.0.0" version="26.0.16">
  <diagram name="第 1 页" id="-8-6c3fv6u0c0Fh4d-nL">
    <mxGraphModel dx="1356" dy="700" grid="1" gridSize="10" guides="1" tooltips="1" connect="1" arrows="1" fold="1" page="1" pageScale="1" pageWidth="1000" pageHeight="1000" math="1" shadow="0">
      <root>
        <mxCell id="0" />
        <mxCell id="1" parent="0" />
        <mxCell id="FWsvEQRZsJ5g-RSvaTtr-120" value="" style="rounded=1;whiteSpace=wrap;html=1;arcSize=23;fillColor=#d5e8d4;strokeColor=#82b366;opacity=50;" vertex="1" parent="1">
          <mxGeometry x="585" y="180" width="315" height="90" as="geometry" />
        </mxCell>
        <mxCell id="FWsvEQRZsJ5g-RSvaTtr-114" value="" style="rounded=1;whiteSpace=wrap;html=1;arcSize=23;fillColor=#f5f5f5;fontColor=#333333;strokeColor=#666666;opacity=50;" vertex="1" parent="1">
          <mxGeometry x="745" y="30" width="60" height="130" as="geometry" />
        </mxCell>
        <mxCell id="FWsvEQRZsJ5g-RSvaTtr-113" value="" style="rounded=1;whiteSpace=wrap;html=1;arcSize=23;fillColor=#f5f5f5;fontColor=#333333;strokeColor=#666666;opacity=50;" vertex="1" parent="1">
          <mxGeometry x="665" y="30" width="60" height="130" as="geometry" />
        </mxCell>
        <mxCell id="FWsvEQRZsJ5g-RSvaTtr-112" value="" style="rounded=1;whiteSpace=wrap;html=1;arcSize=23;fillColor=#f5f5f5;fontColor=#333333;strokeColor=#666666;opacity=50;" vertex="1" parent="1">
          <mxGeometry x="585" y="30" width="60" height="130" as="geometry" />
        </mxCell>
        <mxCell id="FWsvEQRZsJ5g-RSvaTtr-40" style="edgeStyle=none;rounded=0;orthogonalLoop=1;jettySize=auto;html=1;exitX=0.5;exitY=1;exitDx=0;exitDy=0;entryX=0.5;entryY=0;entryDx=0;entryDy=0;fillColor=#f8cecc;strokeColor=#b85450;" edge="1" parent="1" source="FWsvEQRZsJ5g-RSvaTtr-30" target="FWsvEQRZsJ5g-RSvaTtr-36">
          <mxGeometry relative="1" as="geometry" />
        </mxCell>
        <mxCell id="FWsvEQRZsJ5g-RSvaTtr-30" value="" style="rounded=1;whiteSpace=wrap;html=1;arcSize=23;fillColor=#f5f5f5;fontColor=#333333;strokeColor=#666666;" vertex="1" parent="1">
          <mxGeometry x="265" y="30" width="60" height="130" as="geometry" />
        </mxCell>
        <mxCell id="FWsvEQRZsJ5g-RSvaTtr-41" style="edgeStyle=none;rounded=0;orthogonalLoop=1;jettySize=auto;html=1;exitX=0.5;exitY=1;exitDx=0;exitDy=0;entryX=0.5;entryY=0;entryDx=0;entryDy=0;fillColor=#f8cecc;strokeColor=#b85450;" edge="1" parent="1" source="FWsvEQRZsJ5g-RSvaTtr-31" target="FWsvEQRZsJ5g-RSvaTtr-37">
          <mxGeometry relative="1" as="geometry" />
        </mxCell>
        <mxCell id="FWsvEQRZsJ5g-RSvaTtr-31" value="" style="rounded=1;whiteSpace=wrap;html=1;arcSize=23;fillColor=#f5f5f5;fontColor=#333333;strokeColor=#666666;" vertex="1" parent="1">
          <mxGeometry x="345" y="30" width="60" height="130" as="geometry" />
        </mxCell>
        <mxCell id="FWsvEQRZsJ5g-RSvaTtr-42" style="edgeStyle=none;rounded=0;orthogonalLoop=1;jettySize=auto;html=1;exitX=0.5;exitY=1;exitDx=0;exitDy=0;entryX=0.5;entryY=0;entryDx=0;entryDy=0;fillColor=#f8cecc;strokeColor=#b85450;" edge="1" parent="1" source="FWsvEQRZsJ5g-RSvaTtr-32" target="FWsvEQRZsJ5g-RSvaTtr-38">
          <mxGeometry relative="1" as="geometry" />
        </mxCell>
        <mxCell id="FWsvEQRZsJ5g-RSvaTtr-32" value="" style="rounded=1;whiteSpace=wrap;html=1;arcSize=23;fillColor=#f5f5f5;fontColor=#333333;strokeColor=#666666;" vertex="1" parent="1">
          <mxGeometry x="425" y="30" width="60" height="130" as="geometry" />
        </mxCell>
        <mxCell id="FWsvEQRZsJ5g-RSvaTtr-43" style="edgeStyle=none;rounded=0;orthogonalLoop=1;jettySize=auto;html=1;exitX=0.5;exitY=1;exitDx=0;exitDy=0;entryX=0.5;entryY=0;entryDx=0;entryDy=0;fillColor=#f8cecc;strokeColor=#b85450;" edge="1" parent="1" source="FWsvEQRZsJ5g-RSvaTtr-33" target="FWsvEQRZsJ5g-RSvaTtr-39">
          <mxGeometry relative="1" as="geometry" />
        </mxCell>
        <mxCell id="FWsvEQRZsJ5g-RSvaTtr-33" value="" style="rounded=1;whiteSpace=wrap;html=1;arcSize=23;fillColor=#f5f5f5;fontColor=#333333;strokeColor=#666666;" vertex="1" parent="1">
          <mxGeometry x="505" y="30" width="60" height="130" as="geometry" />
        </mxCell>
        <mxCell id="FWsvEQRZsJ5g-RSvaTtr-35" style="edgeStyle=none;rounded=0;orthogonalLoop=1;jettySize=auto;html=1;exitX=0.5;exitY=1;exitDx=0;exitDy=0;entryX=0.5;entryY=0;entryDx=0;entryDy=0;fillColor=#f8cecc;strokeColor=#b85450;" edge="1" parent="1" source="FWsvEQRZsJ5g-RSvaTtr-29" target="FWsvEQRZsJ5g-RSvaTtr-28">
          <mxGeometry relative="1" as="geometry" />
        </mxCell>
        <mxCell id="FWsvEQRZsJ5g-RSvaTtr-29" value="" style="rounded=1;whiteSpace=wrap;html=1;arcSize=23;fillColor=#f5f5f5;fontColor=#333333;strokeColor=#666666;" vertex="1" parent="1">
          <mxGeometry x="185" y="30" width="60" height="130" as="geometry" />
        </mxCell>
        <mxCell id="FWsvEQRZsJ5g-RSvaTtr-11" style="edgeStyle=orthogonalEdgeStyle;rounded=0;orthogonalLoop=1;jettySize=auto;html=1;exitX=0.5;exitY=0;exitDx=0;exitDy=0;entryX=0.5;entryY=1;entryDx=0;entryDy=0;fillColor=#dae8fc;strokeColor=#6c8ebf;" edge="1" parent="1" source="FWsvEQRZsJ5g-RSvaTtr-1" target="FWsvEQRZsJ5g-RSvaTtr-6">
          <mxGeometry relative="1" as="geometry" />
        </mxCell>
        <mxCell id="FWsvEQRZsJ5g-RSvaTtr-18" style="edgeStyle=none;rounded=0;orthogonalLoop=1;jettySize=auto;html=1;exitX=1;exitY=0.5;exitDx=0;exitDy=0;entryX=0;entryY=0.5;entryDx=0;entryDy=0;fillColor=#fff2cc;strokeColor=#d6b656;" edge="1" parent="1" source="FWsvEQRZsJ5g-RSvaTtr-1" target="FWsvEQRZsJ5g-RSvaTtr-2">
          <mxGeometry relative="1" as="geometry" />
        </mxCell>
        <mxCell id="FWsvEQRZsJ5g-RSvaTtr-1" value="$$s_1$$" style="ellipse;whiteSpace=wrap;html=1;aspect=fixed;fillColor=#fff2cc;strokeColor=#d6b656;" vertex="1" parent="1">
          <mxGeometry x="200" y="120" width="30" height="30" as="geometry" />
        </mxCell>
        <mxCell id="FWsvEQRZsJ5g-RSvaTtr-14" style="edgeStyle=none;rounded=0;orthogonalLoop=1;jettySize=auto;html=1;exitX=0.5;exitY=0;exitDx=0;exitDy=0;entryX=0.5;entryY=1;entryDx=0;entryDy=0;fillColor=#dae8fc;strokeColor=#6c8ebf;" edge="1" parent="1" source="FWsvEQRZsJ5g-RSvaTtr-2" target="FWsvEQRZsJ5g-RSvaTtr-7">
          <mxGeometry relative="1" as="geometry" />
        </mxCell>
        <mxCell id="FWsvEQRZsJ5g-RSvaTtr-23" style="edgeStyle=none;rounded=0;orthogonalLoop=1;jettySize=auto;html=1;exitX=1;exitY=0.5;exitDx=0;exitDy=0;entryX=0;entryY=0.5;entryDx=0;entryDy=0;fillColor=#fff2cc;strokeColor=#d6b656;" edge="1" parent="1" source="FWsvEQRZsJ5g-RSvaTtr-2" target="FWsvEQRZsJ5g-RSvaTtr-3">
          <mxGeometry relative="1" as="geometry" />
        </mxCell>
        <mxCell id="FWsvEQRZsJ5g-RSvaTtr-2" value="$$s_2$$" style="ellipse;whiteSpace=wrap;html=1;aspect=fixed;fillColor=#fff2cc;strokeColor=#d6b656;" vertex="1" parent="1">
          <mxGeometry x="280" y="120" width="30" height="30" as="geometry" />
        </mxCell>
        <mxCell id="FWsvEQRZsJ5g-RSvaTtr-15" style="edgeStyle=none;rounded=0;orthogonalLoop=1;jettySize=auto;html=1;exitX=0.5;exitY=0;exitDx=0;exitDy=0;entryX=0.5;entryY=1;entryDx=0;entryDy=0;fillColor=#dae8fc;strokeColor=#6c8ebf;" edge="1" parent="1" source="FWsvEQRZsJ5g-RSvaTtr-3" target="FWsvEQRZsJ5g-RSvaTtr-8">
          <mxGeometry relative="1" as="geometry" />
        </mxCell>
        <mxCell id="FWsvEQRZsJ5g-RSvaTtr-24" style="edgeStyle=none;rounded=0;orthogonalLoop=1;jettySize=auto;html=1;exitX=1;exitY=0.5;exitDx=0;exitDy=0;entryX=0;entryY=0.5;entryDx=0;entryDy=0;fillColor=#fff2cc;strokeColor=#d6b656;" edge="1" parent="1" source="FWsvEQRZsJ5g-RSvaTtr-3" target="FWsvEQRZsJ5g-RSvaTtr-4">
          <mxGeometry relative="1" as="geometry" />
        </mxCell>
        <mxCell id="FWsvEQRZsJ5g-RSvaTtr-3" value="$$s_3$$" style="ellipse;whiteSpace=wrap;html=1;aspect=fixed;fillColor=#fff2cc;strokeColor=#d6b656;" vertex="1" parent="1">
          <mxGeometry x="360" y="120" width="30" height="30" as="geometry" />
        </mxCell>
        <mxCell id="FWsvEQRZsJ5g-RSvaTtr-16" style="edgeStyle=none;rounded=0;orthogonalLoop=1;jettySize=auto;html=1;exitX=0.5;exitY=0;exitDx=0;exitDy=0;entryX=0.5;entryY=1;entryDx=0;entryDy=0;fillColor=#dae8fc;strokeColor=#6c8ebf;" edge="1" parent="1" source="FWsvEQRZsJ5g-RSvaTtr-4" target="FWsvEQRZsJ5g-RSvaTtr-9">
          <mxGeometry relative="1" as="geometry" />
        </mxCell>
        <mxCell id="FWsvEQRZsJ5g-RSvaTtr-25" style="edgeStyle=none;rounded=0;orthogonalLoop=1;jettySize=auto;html=1;exitX=1;exitY=0.5;exitDx=0;exitDy=0;entryX=0;entryY=0.5;entryDx=0;entryDy=0;fillColor=#fff2cc;strokeColor=#d6b656;" edge="1" parent="1" source="FWsvEQRZsJ5g-RSvaTtr-4" target="FWsvEQRZsJ5g-RSvaTtr-5">
          <mxGeometry relative="1" as="geometry" />
        </mxCell>
        <mxCell id="FWsvEQRZsJ5g-RSvaTtr-4" value="$$s_4$$" style="ellipse;whiteSpace=wrap;html=1;aspect=fixed;fillColor=#fff2cc;strokeColor=#d6b656;" vertex="1" parent="1">
          <mxGeometry x="440" y="120" width="30" height="30" as="geometry" />
        </mxCell>
        <mxCell id="FWsvEQRZsJ5g-RSvaTtr-17" style="edgeStyle=none;rounded=0;orthogonalLoop=1;jettySize=auto;html=1;exitX=0.5;exitY=0;exitDx=0;exitDy=0;entryX=0.5;entryY=1;entryDx=0;entryDy=0;fillColor=#dae8fc;strokeColor=#6c8ebf;" edge="1" parent="1" source="FWsvEQRZsJ5g-RSvaTtr-5" target="FWsvEQRZsJ5g-RSvaTtr-10">
          <mxGeometry relative="1" as="geometry" />
        </mxCell>
        <mxCell id="FWsvEQRZsJ5g-RSvaTtr-50" style="edgeStyle=none;rounded=0;orthogonalLoop=1;jettySize=auto;html=1;exitX=1;exitY=0.5;exitDx=0;exitDy=0;entryX=0;entryY=0.5;entryDx=0;entryDy=0;fillColor=#fff2cc;strokeColor=#d6b656;" edge="1" parent="1" source="FWsvEQRZsJ5g-RSvaTtr-5">
          <mxGeometry relative="1" as="geometry">
            <mxPoint x="600.0000000000057" y="135" as="targetPoint" />
          </mxGeometry>
        </mxCell>
        <mxCell id="FWsvEQRZsJ5g-RSvaTtr-5" value="$$s_5$$" style="ellipse;whiteSpace=wrap;html=1;aspect=fixed;fillColor=#fff2cc;strokeColor=#d6b656;" vertex="1" parent="1">
          <mxGeometry x="520" y="120" width="30" height="30" as="geometry" />
        </mxCell>
        <mxCell id="FWsvEQRZsJ5g-RSvaTtr-19" style="edgeStyle=none;rounded=0;orthogonalLoop=1;jettySize=auto;html=1;exitX=1;exitY=1;exitDx=0;exitDy=0;entryX=0;entryY=0;entryDx=0;entryDy=0;fillColor=#fff2cc;strokeColor=#d6b656;" edge="1" parent="1" source="FWsvEQRZsJ5g-RSvaTtr-6" target="FWsvEQRZsJ5g-RSvaTtr-2">
          <mxGeometry relative="1" as="geometry" />
        </mxCell>
        <mxCell id="FWsvEQRZsJ5g-RSvaTtr-6" value="$$a_1$$" style="ellipse;whiteSpace=wrap;html=1;aspect=fixed;fillColor=#dae8fc;strokeColor=#6c8ebf;" vertex="1" parent="1">
          <mxGeometry x="200" y="40" width="30" height="30" as="geometry" />
        </mxCell>
        <mxCell id="FWsvEQRZsJ5g-RSvaTtr-20" style="edgeStyle=none;rounded=0;orthogonalLoop=1;jettySize=auto;html=1;exitX=1;exitY=1;exitDx=0;exitDy=0;entryX=0;entryY=0;entryDx=0;entryDy=0;fillColor=#fff2cc;strokeColor=#d6b656;" edge="1" parent="1" source="FWsvEQRZsJ5g-RSvaTtr-7" target="FWsvEQRZsJ5g-RSvaTtr-3">
          <mxGeometry relative="1" as="geometry" />
        </mxCell>
        <mxCell id="FWsvEQRZsJ5g-RSvaTtr-7" value="$$a_2$$" style="ellipse;whiteSpace=wrap;html=1;aspect=fixed;fillColor=#dae8fc;strokeColor=#6c8ebf;" vertex="1" parent="1">
          <mxGeometry x="280" y="40" width="30" height="30" as="geometry" />
        </mxCell>
        <mxCell id="FWsvEQRZsJ5g-RSvaTtr-21" style="edgeStyle=none;rounded=0;orthogonalLoop=1;jettySize=auto;html=1;exitX=1;exitY=1;exitDx=0;exitDy=0;entryX=0;entryY=0;entryDx=0;entryDy=0;fillColor=#fff2cc;strokeColor=#d6b656;" edge="1" parent="1" source="FWsvEQRZsJ5g-RSvaTtr-8" target="FWsvEQRZsJ5g-RSvaTtr-4">
          <mxGeometry relative="1" as="geometry" />
        </mxCell>
        <mxCell id="FWsvEQRZsJ5g-RSvaTtr-8" value="$$a_3$$" style="ellipse;whiteSpace=wrap;html=1;aspect=fixed;fillColor=#dae8fc;strokeColor=#6c8ebf;" vertex="1" parent="1">
          <mxGeometry x="360" y="40" width="30" height="30" as="geometry" />
        </mxCell>
        <mxCell id="FWsvEQRZsJ5g-RSvaTtr-22" style="edgeStyle=none;rounded=0;orthogonalLoop=1;jettySize=auto;html=1;exitX=1;exitY=1;exitDx=0;exitDy=0;entryX=0;entryY=0;entryDx=0;entryDy=0;fillColor=#fff2cc;strokeColor=#d6b656;" edge="1" parent="1" source="FWsvEQRZsJ5g-RSvaTtr-9" target="FWsvEQRZsJ5g-RSvaTtr-5">
          <mxGeometry relative="1" as="geometry" />
        </mxCell>
        <mxCell id="FWsvEQRZsJ5g-RSvaTtr-9" value="$$a_4$$" style="ellipse;whiteSpace=wrap;html=1;aspect=fixed;fillColor=#dae8fc;strokeColor=#6c8ebf;" vertex="1" parent="1">
          <mxGeometry x="440" y="40" width="30" height="30" as="geometry" />
        </mxCell>
        <mxCell id="FWsvEQRZsJ5g-RSvaTtr-107" style="edgeStyle=none;rounded=0;orthogonalLoop=1;jettySize=auto;html=1;exitX=1;exitY=1;exitDx=0;exitDy=0;entryX=0;entryY=0;entryDx=0;entryDy=0;fillColor=#fff2cc;strokeColor=#d6b656;" edge="1" parent="1" source="FWsvEQRZsJ5g-RSvaTtr-10" target="FWsvEQRZsJ5g-RSvaTtr-94">
          <mxGeometry relative="1" as="geometry" />
        </mxCell>
        <mxCell id="FWsvEQRZsJ5g-RSvaTtr-10" value="$$a_5$$" style="ellipse;whiteSpace=wrap;html=1;aspect=fixed;fillColor=#dae8fc;strokeColor=#6c8ebf;" vertex="1" parent="1">
          <mxGeometry x="520" y="40" width="30" height="30" as="geometry" />
        </mxCell>
        <mxCell id="FWsvEQRZsJ5g-RSvaTtr-28" value="$$r_1$$" style="ellipse;whiteSpace=wrap;html=1;aspect=fixed;fillColor=#f8cecc;strokeColor=#b85450;" vertex="1" parent="1">
          <mxGeometry x="200" y="200" width="30" height="30" as="geometry" />
        </mxCell>
        <mxCell id="FWsvEQRZsJ5g-RSvaTtr-36" value="$$r_2$$" style="ellipse;whiteSpace=wrap;html=1;aspect=fixed;fillColor=#f8cecc;strokeColor=#b85450;" vertex="1" parent="1">
          <mxGeometry x="280" y="200" width="30" height="30" as="geometry" />
        </mxCell>
        <mxCell id="FWsvEQRZsJ5g-RSvaTtr-37" value="$$r_3$$" style="ellipse;whiteSpace=wrap;html=1;aspect=fixed;fillColor=#f8cecc;strokeColor=#b85450;" vertex="1" parent="1">
          <mxGeometry x="360" y="200" width="30" height="30" as="geometry" />
        </mxCell>
        <mxCell id="FWsvEQRZsJ5g-RSvaTtr-38" value="$$r_4$$" style="ellipse;whiteSpace=wrap;html=1;aspect=fixed;fillColor=#f8cecc;strokeColor=#b85450;" vertex="1" parent="1">
          <mxGeometry x="440" y="200" width="30" height="30" as="geometry" />
        </mxCell>
        <mxCell id="FWsvEQRZsJ5g-RSvaTtr-39" value="$$r_5$$" style="ellipse;whiteSpace=wrap;html=1;aspect=fixed;fillColor=#f8cecc;strokeColor=#b85450;" vertex="1" parent="1">
          <mxGeometry x="520" y="200" width="30" height="30" as="geometry" />
        </mxCell>
        <mxCell id="FWsvEQRZsJ5g-RSvaTtr-55" value="" style="shape=waypoint;sketch=0;fillStyle=solid;size=6;pointerEvents=1;points=[];fillColor=none;resizable=0;rotatable=0;perimeter=centerPerimeter;snapToPoint=1;" vertex="1" parent="1">
          <mxGeometry x="850" y="127.5" width="20" height="20" as="geometry" />
        </mxCell>
        <mxCell id="FWsvEQRZsJ5g-RSvaTtr-56" value="" style="shape=waypoint;sketch=0;fillStyle=solid;size=6;pointerEvents=1;points=[];fillColor=none;resizable=0;rotatable=0;perimeter=centerPerimeter;snapToPoint=1;" vertex="1" parent="1">
          <mxGeometry x="860" y="127.5" width="20" height="20" as="geometry" />
        </mxCell>
        <mxCell id="FWsvEQRZsJ5g-RSvaTtr-57" value="" style="shape=waypoint;sketch=0;fillStyle=solid;size=6;pointerEvents=1;points=[];fillColor=none;resizable=0;rotatable=0;perimeter=centerPerimeter;snapToPoint=1;" vertex="1" parent="1">
          <mxGeometry x="870" y="127.5" width="20" height="20" as="geometry" />
        </mxCell>
        <mxCell id="FWsvEQRZsJ5g-RSvaTtr-58" value="" style="shape=waypoint;sketch=0;fillStyle=solid;size=6;pointerEvents=1;points=[];fillColor=none;resizable=0;rotatable=0;perimeter=centerPerimeter;snapToPoint=1;" vertex="1" parent="1">
          <mxGeometry x="850" y="47.5" width="20" height="20" as="geometry" />
        </mxCell>
        <mxCell id="FWsvEQRZsJ5g-RSvaTtr-59" value="" style="shape=waypoint;sketch=0;fillStyle=solid;size=6;pointerEvents=1;points=[];fillColor=none;resizable=0;rotatable=0;perimeter=centerPerimeter;snapToPoint=1;" vertex="1" parent="1">
          <mxGeometry x="860" y="47.5" width="20" height="20" as="geometry" />
        </mxCell>
        <mxCell id="FWsvEQRZsJ5g-RSvaTtr-60" value="" style="shape=waypoint;sketch=0;fillStyle=solid;size=6;pointerEvents=1;points=[];fillColor=none;resizable=0;rotatable=0;perimeter=centerPerimeter;snapToPoint=1;" vertex="1" parent="1">
          <mxGeometry x="870" y="47.5" width="20" height="20" as="geometry" />
        </mxCell>
        <mxCell id="FWsvEQRZsJ5g-RSvaTtr-61" value="" style="shape=waypoint;sketch=0;fillStyle=solid;size=6;pointerEvents=1;points=[];fillColor=none;resizable=0;rotatable=0;perimeter=centerPerimeter;snapToPoint=1;" vertex="1" parent="1">
          <mxGeometry x="850" y="202.5" width="20" height="20" as="geometry" />
        </mxCell>
        <mxCell id="FWsvEQRZsJ5g-RSvaTtr-62" value="" style="shape=waypoint;sketch=0;fillStyle=solid;size=6;pointerEvents=1;points=[];fillColor=none;resizable=0;rotatable=0;perimeter=centerPerimeter;snapToPoint=1;" vertex="1" parent="1">
          <mxGeometry x="860" y="202.5" width="20" height="20" as="geometry" />
        </mxCell>
        <mxCell id="FWsvEQRZsJ5g-RSvaTtr-63" value="" style="shape=waypoint;sketch=0;fillStyle=solid;size=6;pointerEvents=1;points=[];fillColor=none;resizable=0;rotatable=0;perimeter=centerPerimeter;snapToPoint=1;" vertex="1" parent="1">
          <mxGeometry x="870" y="202.5" width="20" height="20" as="geometry" />
        </mxCell>
        <mxCell id="FWsvEQRZsJ5g-RSvaTtr-92" style="edgeStyle=none;rounded=0;orthogonalLoop=1;jettySize=auto;html=1;exitX=0.5;exitY=1;exitDx=0;exitDy=0;entryX=0.5;entryY=0;entryDx=0;entryDy=0;opacity=50;fillColor=#f8cecc;strokeColor=#b85450;" edge="1" parent="1" target="FWsvEQRZsJ5g-RSvaTtr-96">
          <mxGeometry relative="1" as="geometry">
            <mxPoint x="615" y="160" as="sourcePoint" />
          </mxGeometry>
        </mxCell>
        <mxCell id="FWsvEQRZsJ5g-RSvaTtr-93" style="edgeStyle=none;rounded=0;orthogonalLoop=1;jettySize=auto;html=1;exitX=0.5;exitY=0;exitDx=0;exitDy=0;entryX=0.5;entryY=1;entryDx=0;entryDy=0;opacity=50;fillColor=#dae8fc;strokeColor=#6c8ebf;" edge="1" parent="1" source="FWsvEQRZsJ5g-RSvaTtr-94" target="FWsvEQRZsJ5g-RSvaTtr-95">
          <mxGeometry relative="1" as="geometry" />
        </mxCell>
        <mxCell id="FWsvEQRZsJ5g-RSvaTtr-110" style="edgeStyle=none;rounded=0;orthogonalLoop=1;jettySize=auto;html=1;exitX=1;exitY=0.5;exitDx=0;exitDy=0;entryX=0;entryY=0.5;entryDx=0;entryDy=0;opacity=50;fillColor=#fff2cc;strokeColor=#d6b656;" edge="1" parent="1" source="FWsvEQRZsJ5g-RSvaTtr-94" target="FWsvEQRZsJ5g-RSvaTtr-99">
          <mxGeometry relative="1" as="geometry" />
        </mxCell>
        <mxCell id="FWsvEQRZsJ5g-RSvaTtr-94" value="$$S_6$$" style="ellipse;whiteSpace=wrap;html=1;aspect=fixed;fillColor=#fff2cc;strokeColor=#d6b656;opacity=50;" vertex="1" parent="1">
          <mxGeometry x="600" y="120" width="30" height="30" as="geometry" />
        </mxCell>
        <mxCell id="FWsvEQRZsJ5g-RSvaTtr-108" style="edgeStyle=none;rounded=0;orthogonalLoop=1;jettySize=auto;html=1;exitX=1;exitY=1;exitDx=0;exitDy=0;entryX=0;entryY=0;entryDx=0;entryDy=0;opacity=50;fillColor=#fff2cc;strokeColor=#d6b656;" edge="1" parent="1" source="FWsvEQRZsJ5g-RSvaTtr-95" target="FWsvEQRZsJ5g-RSvaTtr-99">
          <mxGeometry relative="1" as="geometry" />
        </mxCell>
        <mxCell id="FWsvEQRZsJ5g-RSvaTtr-95" value="$$A_6$$" style="ellipse;whiteSpace=wrap;html=1;aspect=fixed;fillColor=#dae8fc;strokeColor=#6c8ebf;opacity=50;" vertex="1" parent="1">
          <mxGeometry x="600" y="40" width="30" height="30" as="geometry" />
        </mxCell>
        <mxCell id="FWsvEQRZsJ5g-RSvaTtr-96" value="$$R_6$$" style="ellipse;whiteSpace=wrap;html=1;aspect=fixed;fillColor=#f8cecc;strokeColor=#b85450;opacity=50;" vertex="1" parent="1">
          <mxGeometry x="600" y="200" width="30" height="30" as="geometry" />
        </mxCell>
        <mxCell id="FWsvEQRZsJ5g-RSvaTtr-97" style="edgeStyle=none;rounded=0;orthogonalLoop=1;jettySize=auto;html=1;exitX=0.5;exitY=1;exitDx=0;exitDy=0;entryX=0.5;entryY=0;entryDx=0;entryDy=0;opacity=50;fillColor=#f8cecc;strokeColor=#b85450;" edge="1" parent="1" target="FWsvEQRZsJ5g-RSvaTtr-101">
          <mxGeometry relative="1" as="geometry">
            <mxPoint x="695" y="160" as="sourcePoint" />
          </mxGeometry>
        </mxCell>
        <mxCell id="FWsvEQRZsJ5g-RSvaTtr-98" style="edgeStyle=none;rounded=0;orthogonalLoop=1;jettySize=auto;html=1;exitX=0.5;exitY=0;exitDx=0;exitDy=0;entryX=0.5;entryY=1;entryDx=0;entryDy=0;opacity=50;fillColor=#dae8fc;strokeColor=#6c8ebf;" edge="1" parent="1" source="FWsvEQRZsJ5g-RSvaTtr-99" target="FWsvEQRZsJ5g-RSvaTtr-100">
          <mxGeometry relative="1" as="geometry" />
        </mxCell>
        <mxCell id="FWsvEQRZsJ5g-RSvaTtr-111" style="edgeStyle=none;rounded=0;orthogonalLoop=1;jettySize=auto;html=1;exitX=1;exitY=0.5;exitDx=0;exitDy=0;entryX=0;entryY=0.5;entryDx=0;entryDy=0;opacity=50;fillColor=#fff2cc;strokeColor=#d6b656;" edge="1" parent="1" source="FWsvEQRZsJ5g-RSvaTtr-99" target="FWsvEQRZsJ5g-RSvaTtr-104">
          <mxGeometry relative="1" as="geometry" />
        </mxCell>
        <mxCell id="FWsvEQRZsJ5g-RSvaTtr-99" value="$$S_7$$" style="ellipse;whiteSpace=wrap;html=1;aspect=fixed;fillColor=#fff2cc;strokeColor=#d6b656;opacity=50;" vertex="1" parent="1">
          <mxGeometry x="680" y="120" width="30" height="30" as="geometry" />
        </mxCell>
        <mxCell id="FWsvEQRZsJ5g-RSvaTtr-109" style="edgeStyle=none;rounded=0;orthogonalLoop=1;jettySize=auto;html=1;exitX=1;exitY=1;exitDx=0;exitDy=0;entryX=0;entryY=0;entryDx=0;entryDy=0;opacity=50;fillColor=#fff2cc;strokeColor=#d6b656;" edge="1" parent="1" source="FWsvEQRZsJ5g-RSvaTtr-100" target="FWsvEQRZsJ5g-RSvaTtr-104">
          <mxGeometry relative="1" as="geometry" />
        </mxCell>
        <mxCell id="FWsvEQRZsJ5g-RSvaTtr-100" value="$$A_7$$" style="ellipse;whiteSpace=wrap;html=1;aspect=fixed;fillColor=#dae8fc;strokeColor=#6c8ebf;opacity=50;" vertex="1" parent="1">
          <mxGeometry x="680" y="40" width="30" height="30" as="geometry" />
        </mxCell>
        <mxCell id="FWsvEQRZsJ5g-RSvaTtr-101" value="$$R_7$$" style="ellipse;whiteSpace=wrap;html=1;aspect=fixed;fillColor=#f8cecc;strokeColor=#b85450;opacity=50;" vertex="1" parent="1">
          <mxGeometry x="680" y="200" width="30" height="30" as="geometry" />
        </mxCell>
        <mxCell id="FWsvEQRZsJ5g-RSvaTtr-102" style="edgeStyle=none;rounded=0;orthogonalLoop=1;jettySize=auto;html=1;exitX=0.5;exitY=1;exitDx=0;exitDy=0;entryX=0.5;entryY=0;entryDx=0;entryDy=0;opacity=50;fillColor=#f8cecc;strokeColor=#b85450;" edge="1" parent="1" target="FWsvEQRZsJ5g-RSvaTtr-106">
          <mxGeometry relative="1" as="geometry">
            <mxPoint x="775" y="160" as="sourcePoint" />
          </mxGeometry>
        </mxCell>
        <mxCell id="FWsvEQRZsJ5g-RSvaTtr-103" style="edgeStyle=none;rounded=0;orthogonalLoop=1;jettySize=auto;html=1;exitX=0.5;exitY=0;exitDx=0;exitDy=0;entryX=0.5;entryY=1;entryDx=0;entryDy=0;opacity=50;fillColor=#dae8fc;strokeColor=#6c8ebf;" edge="1" parent="1" source="FWsvEQRZsJ5g-RSvaTtr-104" target="FWsvEQRZsJ5g-RSvaTtr-105">
          <mxGeometry relative="1" as="geometry" />
        </mxCell>
        <mxCell id="FWsvEQRZsJ5g-RSvaTtr-116" style="edgeStyle=none;rounded=0;orthogonalLoop=1;jettySize=auto;html=1;exitX=1;exitY=0.5;exitDx=0;exitDy=0;entryX=0;entryY=0.5;entryDx=0;entryDy=0;opacity=50;fillColor=#fff2cc;strokeColor=#d6b656;" edge="1" parent="1" source="FWsvEQRZsJ5g-RSvaTtr-104">
          <mxGeometry relative="1" as="geometry">
            <mxPoint x="840" y="135" as="targetPoint" />
          </mxGeometry>
        </mxCell>
        <mxCell id="FWsvEQRZsJ5g-RSvaTtr-104" value="$$S_8$$" style="ellipse;whiteSpace=wrap;html=1;aspect=fixed;fillColor=#fff2cc;strokeColor=#d6b656;opacity=50;" vertex="1" parent="1">
          <mxGeometry x="760" y="120" width="30" height="30" as="geometry" />
        </mxCell>
        <mxCell id="FWsvEQRZsJ5g-RSvaTtr-117" style="edgeStyle=none;rounded=0;orthogonalLoop=1;jettySize=auto;html=1;exitX=1;exitY=1;exitDx=0;exitDy=0;opacity=50;fillColor=#fff2cc;strokeColor=#d6b656;" edge="1" parent="1" source="FWsvEQRZsJ5g-RSvaTtr-105">
          <mxGeometry relative="1" as="geometry">
            <mxPoint x="830" y="110" as="targetPoint" />
          </mxGeometry>
        </mxCell>
        <mxCell id="FWsvEQRZsJ5g-RSvaTtr-105" value="$$A_8$$" style="ellipse;whiteSpace=wrap;html=1;aspect=fixed;fillColor=#dae8fc;strokeColor=#6c8ebf;opacity=50;" vertex="1" parent="1">
          <mxGeometry x="760" y="40" width="30" height="30" as="geometry" />
        </mxCell>
        <mxCell id="FWsvEQRZsJ5g-RSvaTtr-106" value="$$R_8$$" style="ellipse;whiteSpace=wrap;html=1;aspect=fixed;fillColor=#f8cecc;strokeColor=#b85450;opacity=50;" vertex="1" parent="1">
          <mxGeometry x="760" y="200" width="30" height="30" as="geometry" />
        </mxCell>
        <mxCell id="FWsvEQRZsJ5g-RSvaTtr-121" value="$$U_6$$" style="text;html=1;align=center;verticalAlign=middle;whiteSpace=wrap;rounded=0;" vertex="1" parent="1">
          <mxGeometry x="585" y="240" width="60" height="30" as="geometry" />
        </mxCell>
        <mxCell id="FWsvEQRZsJ5g-RSvaTtr-129" style="edgeStyle=none;rounded=0;orthogonalLoop=1;jettySize=auto;html=1;exitX=1;exitY=0.5;exitDx=0;exitDy=0;" edge="1" parent="1" source="FWsvEQRZsJ5g-RSvaTtr-122">
          <mxGeometry relative="1" as="geometry">
            <mxPoint x="255" y="375.20000000000005" as="targetPoint" />
          </mxGeometry>
        </mxCell>
        <mxCell id="FWsvEQRZsJ5g-RSvaTtr-122" value="$$S_6$$" style="ellipse;whiteSpace=wrap;html=1;aspect=fixed;fillColor=#fff2cc;strokeColor=#d6b656;" vertex="1" parent="1">
          <mxGeometry x="185" y="360" width="30" height="30" as="geometry" />
        </mxCell>
        <mxCell id="FWsvEQRZsJ5g-RSvaTtr-128" style="edgeStyle=none;rounded=0;orthogonalLoop=1;jettySize=auto;html=1;exitX=1;exitY=0.5;exitDx=0;exitDy=0;" edge="1" parent="1" source="FWsvEQRZsJ5g-RSvaTtr-123">
          <mxGeometry relative="1" as="geometry">
            <mxPoint x="255" y="335.20000000000005" as="targetPoint" />
          </mxGeometry>
        </mxCell>
        <mxCell id="FWsvEQRZsJ5g-RSvaTtr-123" value="$$A_6$$" style="ellipse;whiteSpace=wrap;html=1;aspect=fixed;fillColor=#dae8fc;strokeColor=#6c8ebf;" vertex="1" parent="1">
          <mxGeometry x="185" y="320" width="30" height="30" as="geometry" />
        </mxCell>
        <mxCell id="FWsvEQRZsJ5g-RSvaTtr-130" style="edgeStyle=none;rounded=0;orthogonalLoop=1;jettySize=auto;html=1;exitX=1;exitY=0.5;exitDx=0;exitDy=0;" edge="1" parent="1" source="FWsvEQRZsJ5g-RSvaTtr-125" target="FWsvEQRZsJ5g-RSvaTtr-127">
          <mxGeometry relative="1" as="geometry" />
        </mxCell>
        <mxCell id="FWsvEQRZsJ5g-RSvaTtr-125" value="$$Q_\pi$$" style="rounded=1;whiteSpace=wrap;html=1;" vertex="1" parent="1">
          <mxGeometry x="255" y="310" width="120" height="90" as="geometry" />
        </mxCell>
        <mxCell id="FWsvEQRZsJ5g-RSvaTtr-126" value="$$U_6$$" style="ellipse;whiteSpace=wrap;html=1;aspect=fixed;fillColor=#d5e8d4;strokeColor=#82b366;" vertex="1" parent="1">
          <mxGeometry x="445" y="340" width="30" height="30" as="geometry" />
        </mxCell>
        <mxCell id="FWsvEQRZsJ5g-RSvaTtr-127" value="$$\mathbb{E}$$" style="text;html=1;align=center;verticalAlign=middle;whiteSpace=wrap;rounded=0;" vertex="1" parent="1">
          <mxGeometry x="425" y="340" width="20" height="30" as="geometry" />
        </mxCell>
        <mxCell id="FWsvEQRZsJ5g-RSvaTtr-139" value="" style="edgeStyle=none;rounded=0;orthogonalLoop=1;jettySize=auto;html=1;" edge="1" parent="1" source="FWsvEQRZsJ5g-RSvaTtr-132" target="FWsvEQRZsJ5g-RSvaTtr-136">
          <mxGeometry relative="1" as="geometry" />
        </mxCell>
        <mxCell id="FWsvEQRZsJ5g-RSvaTtr-132" value="$$S_6$$" style="ellipse;whiteSpace=wrap;html=1;aspect=fixed;fillColor=#fff2cc;strokeColor=#d6b656;" vertex="1" parent="1">
          <mxGeometry x="565" y="340" width="30" height="30" as="geometry" />
        </mxCell>
        <mxCell id="FWsvEQRZsJ5g-RSvaTtr-135" style="edgeStyle=none;rounded=0;orthogonalLoop=1;jettySize=auto;html=1;exitX=1;exitY=0.5;exitDx=0;exitDy=0;" edge="1" parent="1" source="FWsvEQRZsJ5g-RSvaTtr-136" target="FWsvEQRZsJ5g-RSvaTtr-138">
          <mxGeometry relative="1" as="geometry" />
        </mxCell>
        <mxCell id="FWsvEQRZsJ5g-RSvaTtr-136" value="$$V_\pi$$" style="rounded=1;whiteSpace=wrap;html=1;" vertex="1" parent="1">
          <mxGeometry x="635" y="310" width="120" height="90" as="geometry" />
        </mxCell>
        <mxCell id="FWsvEQRZsJ5g-RSvaTtr-137" value="$$U_6$$" style="ellipse;whiteSpace=wrap;html=1;aspect=fixed;fillColor=#d5e8d4;strokeColor=#82b366;" vertex="1" parent="1">
          <mxGeometry x="825" y="340" width="30" height="30" as="geometry" />
        </mxCell>
        <mxCell id="FWsvEQRZsJ5g-RSvaTtr-138" value="$$\mathbb{E}$$" style="text;html=1;align=center;verticalAlign=middle;whiteSpace=wrap;rounded=0;" vertex="1" parent="1">
          <mxGeometry x="805" y="340" width="20" height="30" as="geometry" />
        </mxCell>
        <mxCell id="FWsvEQRZsJ5g-RSvaTtr-140" value="$$\pi$$" style="text;html=1;align=center;verticalAlign=middle;whiteSpace=wrap;rounded=0;fontColor=#7EA6E0;" vertex="1" parent="1">
          <mxGeometry x="195" y="90" width="20" height="20" as="geometry" />
        </mxCell>
        <mxCell id="FWsvEQRZsJ5g-RSvaTtr-141" value="$$\pi$$" style="text;html=1;align=center;verticalAlign=middle;whiteSpace=wrap;rounded=0;fontColor=#7EA6E0;" vertex="1" parent="1">
          <mxGeometry x="275" y="90" width="20" height="20" as="geometry" />
        </mxCell>
        <mxCell id="FWsvEQRZsJ5g-RSvaTtr-142" value="$$\pi$$" style="text;html=1;align=center;verticalAlign=middle;whiteSpace=wrap;rounded=0;fontColor=#7EA6E0;" vertex="1" parent="1">
          <mxGeometry x="355" y="90" width="20" height="20" as="geometry" />
        </mxCell>
        <mxCell id="FWsvEQRZsJ5g-RSvaTtr-143" value="$$\pi$$" style="text;html=1;align=center;verticalAlign=middle;whiteSpace=wrap;rounded=0;fontColor=#7EA6E0;" vertex="1" parent="1">
          <mxGeometry x="435" y="90" width="20" height="20" as="geometry" />
        </mxCell>
        <mxCell id="FWsvEQRZsJ5g-RSvaTtr-144" value="$$\pi$$" style="text;html=1;align=center;verticalAlign=middle;whiteSpace=wrap;rounded=0;fontColor=#7EA6E0;" vertex="1" parent="1">
          <mxGeometry x="515" y="90" width="20" height="20" as="geometry" />
        </mxCell>
        <mxCell id="FWsvEQRZsJ5g-RSvaTtr-145" value="$$r$$" style="text;html=1;align=center;verticalAlign=middle;whiteSpace=wrap;rounded=0;fontColor=#FF0000;" vertex="1" parent="1">
          <mxGeometry x="195" y="170" width="20" height="20" as="geometry" />
        </mxCell>
        <mxCell id="FWsvEQRZsJ5g-RSvaTtr-146" value="$$r$$" style="text;html=1;align=center;verticalAlign=middle;whiteSpace=wrap;rounded=0;fontColor=#FF0000;" vertex="1" parent="1">
          <mxGeometry x="275" y="170" width="20" height="20" as="geometry" />
        </mxCell>
        <mxCell id="FWsvEQRZsJ5g-RSvaTtr-147" value="$$r$$" style="text;html=1;align=center;verticalAlign=middle;whiteSpace=wrap;rounded=0;fontColor=#FF0000;" vertex="1" parent="1">
          <mxGeometry x="355" y="170" width="20" height="20" as="geometry" />
        </mxCell>
        <mxCell id="FWsvEQRZsJ5g-RSvaTtr-148" value="$$r$$" style="text;html=1;align=center;verticalAlign=middle;whiteSpace=wrap;rounded=0;fontColor=#FF0000;" vertex="1" parent="1">
          <mxGeometry x="435" y="170" width="20" height="20" as="geometry" />
        </mxCell>
        <mxCell id="FWsvEQRZsJ5g-RSvaTtr-149" value="$$r$$" style="text;html=1;align=center;verticalAlign=middle;whiteSpace=wrap;rounded=0;fontColor=#FF0000;" vertex="1" parent="1">
          <mxGeometry x="515" y="170" width="20" height="20" as="geometry" />
        </mxCell>
        <mxCell id="FWsvEQRZsJ5g-RSvaTtr-156" style="edgeStyle=none;rounded=0;orthogonalLoop=1;jettySize=auto;html=1;exitX=0.25;exitY=0;exitDx=0;exitDy=0;entryX=0.25;entryY=1;entryDx=0;entryDy=0;fillColor=#dae8fc;strokeColor=#6c8ebf;" edge="1" parent="1" source="FWsvEQRZsJ5g-RSvaTtr-150" target="FWsvEQRZsJ5g-RSvaTtr-151">
          <mxGeometry relative="1" as="geometry" />
        </mxCell>
        <mxCell id="FWsvEQRZsJ5g-RSvaTtr-157" style="edgeStyle=none;rounded=0;orthogonalLoop=1;jettySize=auto;html=1;exitX=0.5;exitY=0;exitDx=0;exitDy=0;entryX=0.5;entryY=1;entryDx=0;entryDy=0;fillColor=#f8cecc;strokeColor=#b85450;" edge="1" parent="1" source="FWsvEQRZsJ5g-RSvaTtr-150" target="FWsvEQRZsJ5g-RSvaTtr-151">
          <mxGeometry relative="1" as="geometry" />
        </mxCell>
        <mxCell id="FWsvEQRZsJ5g-RSvaTtr-150" value="Environment" style="rounded=1;whiteSpace=wrap;html=1;fillColor=#fff2cc;strokeColor=#d6b656;" vertex="1" parent="1">
          <mxGeometry x="40" y="120" width="120" height="35" as="geometry" />
        </mxCell>
        <mxCell id="FWsvEQRZsJ5g-RSvaTtr-155" style="edgeStyle=none;rounded=0;orthogonalLoop=1;jettySize=auto;html=1;exitX=0.75;exitY=1;exitDx=0;exitDy=0;entryX=0.75;entryY=0;entryDx=0;entryDy=0;fillColor=#fff2cc;strokeColor=#d6b656;" edge="1" parent="1" source="FWsvEQRZsJ5g-RSvaTtr-151" target="FWsvEQRZsJ5g-RSvaTtr-150">
          <mxGeometry relative="1" as="geometry" />
        </mxCell>
        <mxCell id="FWsvEQRZsJ5g-RSvaTtr-151" value="Agent" style="rounded=1;whiteSpace=wrap;html=1;fillColor=#dae8fc;strokeColor=#6c8ebf;" vertex="1" parent="1">
          <mxGeometry x="40" y="35" width="120" height="35" as="geometry" />
        </mxCell>
      </root>
    </mxGraphModel>
  </diagram>
</mxfile>
